<?xml version="1.0" encoding="UTF-8" standalone="no"?>
<!-- Created with Inkscape (http://www.inkscape.org/) -->

<svg
   width="600"
   height="150"
   viewBox="0 0 158.75 39.6875"
   version="1.1"
   id="svg441"
   inkscape:export-filename="bahuriak_logo.svg"
   inkscape:export-xdpi="96"
   inkscape:export-ydpi="96"
   inkscape:version="1.2.2 (732a01da63, 2022-12-09)"
   sodipodi:docname="bahuriak_logo.svg"
   xml:space="preserve"
   xmlns:inkscape="http://www.inkscape.org/namespaces/inkscape"
   xmlns:sodipodi="http://sodipodi.sourceforge.net/DTD/sodipodi-0.dtd"
   xmlns="http://www.w3.org/2000/svg"
   xmlns:svg="http://www.w3.org/2000/svg"><sodipodi:namedview
     id="namedview443"
     pagecolor="#ffffff"
     bordercolor="#000000"
     borderopacity="0.25"
     inkscape:showpageshadow="2"
     inkscape:pageopacity="0.0"
     inkscape:pagecheckerboard="0"
     inkscape:deskcolor="#d1d1d1"
     inkscape:document-units="mm"
     showgrid="false"
     inkscape:zoom="1.0544998"
     inkscape:cx="321.00528"
     inkscape:cy="41.725945"
     inkscape:window-width="1920"
     inkscape:window-height="1017"
     inkscape:window-x="-8"
     inkscape:window-y="-8"
     inkscape:window-maximized="1"
     inkscape:current-layer="layer1" /><defs
     id="defs438" /><g
     inkscape:label="Layer 1"
     inkscape:groupmode="layer"
     id="layer1"><path
       style="font-size:22.5778px;font-family:Mortend;-inkscape-font-specification:Mortend;letter-spacing:-1.05833px;fill:#ffffff;stroke-width:0.0228553"
       d="m 143.16377,19.00827 c -0.12203,-0.122031 -0.134,-0.776427 -0.11415,-6.241134 l 0.0222,-6.1048053 0.42043,-0.081154 c 0.32812,-0.063335 0.47037,-0.052989 0.64787,0.047118 l 0.22744,0.1282759 -0.0154,3.2570064 c -0.008,1.791353 0.0153,3.257009 0.0528,3.257009 0.0693,0 5.41094,-5.4372326 5.81923,-5.9233783 0.41605,-0.4953852 0.82843,-0.7074175 1.50051,-0.7715162 0.7433,-0.070886 1.01409,-0.010643 0.90043,0.2004159 -0.0431,0.079953 -1.03743,1.0977366 -2.20971,2.2617366 -1.17227,1.164006 -2.20877,2.223453 -2.30333,2.354331 l -0.17192,0.237958 2.25148,3.188987 c 1.23832,1.753939 2.3742,3.386382 2.52418,3.627654 0.14998,0.241269 0.30576,0.438672 0.34617,0.438672 0.0404,0 0.0735,0.05394 0.0735,0.119872 0,0.146729 -1.04535,0.182368 -1.38213,0.04712 -0.22887,-0.09192 -0.60421,-0.569569 -1.65852,-2.110597 -0.80726,-1.179942 -1.88824,-2.743775 -2.44815,-3.541681 -0.7385,-1.052421 -0.5343,-1.084638 -1.90569,0.300677 -0.66032,0.667018 -1.23944,1.322854 -1.28695,1.457415 -0.0482,0.136415 -0.0817,1.017173 -0.0758,1.9908 0.009,1.417006 -0.013,1.769642 -0.11415,1.870839 -0.17271,0.172707 -0.92378,0.164774 -1.10017,-0.01162 z"
       id="path18911" /><path
       style="font-size:22.5778px;font-family:Mortend;-inkscape-font-specification:Mortend;letter-spacing:-1.05833px;fill:#ffffff;stroke-width:0.0228553"
       d="m 126.29622,19.049465 c -0.0997,-0.09971 -0.0388,-0.428586 0.13557,-0.731414 0.0971,-0.168721 0.84352,-1.962852 1.14752,-2.758333 0.0908,-0.237553 0.20196,-0.509656 0.24707,-0.604676 0.0451,-0.09502 0.29257,-0.697538 0.54992,-1.338927 0.54401,-1.355869 0.70901,-1.755248 0.8797,-2.129426 0.0683,-0.14971 0.12418,-0.299325 0.12418,-0.332473 0,-0.03315 0.0566,-0.182762 0.1257,-0.332475 0.0691,-0.149713 0.30658,-0.71923 0.52765,-1.2656024 0.22107,-0.5463658 0.46861,-1.1488837 0.55008,-1.3389272 0.13703,-0.3196646 0.34911,-0.8449101 0.5326,-1.3190672 0.13772,-0.3559044 0.78154,-0.4803506 1.10828,-0.2142198 0.16027,0.1305319 1.43051,3.1329189 2.4212,5.7228376 0.1363,0.356326 0.72122,1.814032 1.29981,3.239341 1.30015,3.202764 1.31386,3.239614 1.25915,3.38219 -0.0309,0.08065 -0.21346,0.116297 -0.59543,0.116297 -0.4347,0 -0.58266,-0.03519 -0.70189,-0.166935 -0.12676,-0.140059 -0.75627,-1.677482 -0.99276,-2.424538 -0.12205,-0.385553 -0.45765,-1.122847 -0.51325,-1.127571 -0.0298,-0.0026 -1.23975,-0.01224 -2.68881,-0.02161 l -2.63467,-0.01698 -0.19251,0.402771 c -0.10588,0.221523 -0.41014,0.998965 -0.67613,1.72765 -0.26599,0.728681 -0.54496,1.392901 -0.61992,1.476044 -0.15807,0.175326 -1.13158,0.217521 -1.29306,0.05605 z m 7.62729,-4.862217 c 0.0382,-0.09958 -0.27777,-1.049835 -0.57771,-1.737298 -0.20519,-0.47036 -1.28777,-3.4394654 -1.28777,-3.5319161 0,-0.05847 -0.0583,-0.1817704 -0.12957,-0.2739959 -0.12823,-0.1659489 -0.1309,-0.1659489 -0.25909,-8.16e-5 -0.0712,0.09218 -0.2085,0.3837209 -0.30503,0.6478699 -0.24374,0.6669661 -0.71951,1.9085097 -1.26396,3.2983617 -0.25356,0.647256 -0.48531,1.298362 -0.51502,1.44691 l -0.054,0.270078 h 2.17307 c 1.77423,0 2.18151,-0.02201 2.21909,-0.119925 z"
       id="path18909" /><path
       style="font-size:22.5778px;font-family:Mortend;-inkscape-font-specification:Mortend;letter-spacing:-1.05833px;fill:#ffffff;stroke-width:0.0228553"
       d="m 119.80557,19.031698 c -0.0652,-0.07853 -0.0968,-1.964198 -0.10372,-6.194165 -0.009,-5.7238762 -9.8e-4,-6.0878251 0.14283,-6.1930153 0.18766,-0.1372215 0.5225,-0.1430656 0.88843,-0.015508 l 0.2761,0.096251 -0.0256,6.1264683 c -0.0223,5.332872 -0.0424,6.137082 -0.15523,6.20835 -0.19328,0.122125 -0.91446,0.102109 -1.02275,-0.02837 z"
       id="path18907" /><path
       style="font-size:22.5778px;font-family:Mortend;-inkscape-font-specification:Mortend;letter-spacing:-1.05833px;fill:#ffffff;stroke-width:0.0228553"
       d="m 104.55791,19.015371 c -0.11273,-0.112726 -0.12613,-0.900116 -0.10495,-6.16454 0.0133,-3.3194203 0.0516,-6.0794935 0.085,-6.1334974 0.0435,-0.070318 0.92341,-0.098187 3.10027,-0.098187 3.02525,0 3.04265,9.794e-4 3.68776,0.2189505 0.79826,0.2696569 1.24176,0.5687071 1.65579,1.1165095 0.52207,0.690757 0.67696,1.2128649 0.67598,2.2786944 -6.5e-4,0.793746 -0.0299,0.983401 -0.21148,1.373345 -0.41363,0.888427 -1.34648,1.659026 -2.16796,1.790887 -0.55853,0.08965 -1.07501,0.236604 -1.07501,0.305864 0,0.03565 0.53449,0.784939 1.18775,1.665089 2.24374,3.022995 2.54674,3.445401 2.58993,3.610566 0.0397,0.151613 -0.008,0.165548 -0.56739,0.165548 -0.33588,0 -0.7109,-0.04566 -0.83338,-0.101465 -0.12248,-0.05581 -0.50041,-0.493116 -0.83985,-0.971805 -0.33943,-0.478682 -0.76011,-1.064696 -0.93483,-1.302247 -0.17473,-0.23755 -0.73148,-1.020523 -1.23722,-1.739935 -0.50576,-0.719416 -0.97631,-1.329805 -1.04569,-1.356424 -0.0981,-0.03765 -2.05636,-0.08322 -2.61685,-0.0609 -0.084,0.0034 -0.10798,0.599145 -0.10798,2.679115 0,2.556105 -0.007,2.678785 -0.16708,2.764239 -0.25175,0.134734 -0.92315,0.10982 -1.07278,-0.03981 z m 6.4275,-6.781998 c 0.92266,-0.361288 1.3778,-1.041575 1.37695,-2.058115 -2.6e-4,-0.3167553 -0.0413,-0.7227522 -0.0911,-0.9022143 -0.15118,-0.5444135 -0.85683,-1.2158229 -1.46331,-1.3923108 -0.27814,-0.080942 -4.35964,-0.1636897 -4.72944,-0.095882 l -0.28074,0.051477 v 2.2817271 2.281727 l 0.71266,0.02511 c 0.39196,0.01378 1.45333,0.01779 2.35861,0.0089 1.45163,-0.01427 1.7015,-0.03794 2.11637,-0.200393 z"
       id="path18905" /><path
       style="font-size:22.5778px;font-family:Mortend;-inkscape-font-specification:Mortend;letter-spacing:-1.05833px;fill:#ffffff;stroke-width:0.0228553"
       d="m 73.583054,19.022168 c -0.07578,-0.09131 -0.101368,-1.66661 -0.100672,-6.197943 9.14e-4,-6.042933 0.0019,-6.0761561 0.17935,-6.1953165 0.13583,-0.091207 0.286218,-0.1015139 0.629988,-0.043191 l 0.451564,0.076613 0.0048,2.6538645 c 0.0028,1.459629 0.03273,2.681795 0.06687,2.715929 0.03413,0.03413 1.684035,0.0596 3.666449,0.0566 l 3.604388,-0.0055 0.02284,-2.6361239 c 0.01973,-2.2770455 0.04139,-2.6515301 0.159122,-2.7492372 0.195858,-0.162547 1.054533,-0.1568955 1.158684,0.00761 0.129926,0.2052349 0.111456,12.2049691 -0.019,12.3354131 -0.05702,0.05701 -0.303657,0.103659 -0.5481,0.103659 -0.782392,0 -0.760114,0.09569 -0.713495,-3.064657 l 0.04017,-2.722953 H 78.486249 74.78648 l -0.0037,0.280745 c -0.0022,0.154408 -9.14e-4,1.36916 0.0028,2.699452 0.0075,2.819438 0.01044,2.807426 -0.684407,2.807426 -0.253976,0 -0.456075,-0.04776 -0.51804,-0.122422 z"
       id="path18903" /><path
       style="font-size:22.5778px;font-family:Mortend;-inkscape-font-specification:Mortend;letter-spacing:-1.05833px;fill:#ffffff;stroke-width:0.0228553"
       d="m 56.723183,19.088575 c -0.09696,-0.09696 0.155473,-0.846951 0.635336,-1.887588 0.04382,-0.09502 0.289863,-0.697538 0.546771,-1.338927 0.256908,-0.64139 0.552679,-1.360521 0.657269,-1.598075 0.104589,-0.237554 0.278461,-0.665144 0.386381,-0.950209 0.176802,-0.467003 0.541159,-1.365059 1.945093,-4.7942234 0.724706,-1.7701223 0.789115,-1.8886558 1.058446,-1.9478083 0.29332,-0.064425 0.714386,0.019948 0.837032,0.1677315 0.04986,0.06008 0.189946,0.3782784 0.311299,0.7071041 0.121355,0.328829 0.275861,0.7144859 0.343349,0.8570128 0.06749,0.1425335 0.22293,0.5312528 0.345426,0.8638266 0.122496,0.3325737 0.260314,0.6722094 0.306262,0.7547513 0.04595,0.082541 0.136444,0.2963374 0.201101,0.4751044 0.06466,0.178766 0.395856,1.024728 0.735996,1.879912 0.340139,0.855188 0.722135,1.82699 0.848879,2.159564 0.126744,0.33257 0.261286,0.646681 0.29898,0.698021 0.03769,0.05134 0.202013,0.459498 0.365152,0.907014 0.163139,0.447519 0.419128,1.105213 0.568864,1.461539 0.149737,0.356325 0.314146,0.764487 0.365353,0.907017 0.05121,0.14253 0.130685,0.307242 0.176617,0.366025 0.04593,0.05878 0.06095,0.165682 0.03337,0.237554 -0.06306,0.164323 -0.951757,0.179544 -1.25069,0.02145 -0.214077,-0.113241 -0.252381,-0.202159 -1.226352,-2.846869 -0.16892,-0.458682 -0.332456,-0.767435 -0.418082,-0.789329 -0.07735,-0.01978 -1.276747,-0.03013 -2.665326,-0.02298 -2.182716,0.01123 -2.543322,0.0316 -2.66226,0.150546 -0.07567,0.07566 -0.366355,0.7637 -0.645978,1.528967 -0.532999,1.458708 -0.736029,1.917396 -0.895361,2.022812 -0.118697,0.07853 -1.126038,0.08698 -1.202926,0.01009 z m 7.666154,-4.858215 c 0.02611,-0.04225 -0.09061,-0.440689 -0.259393,-0.885421 C 63.101286,10.63441 62.799411,9.8208525 62.70191,9.4963691 62.656342,9.3447201 62.528508,9.0154635 62.417834,8.7646905 L 62.21661,8.3087381 62.084509,8.565316 c -0.07265,0.1411165 -0.173301,0.3926274 -0.223658,0.5589126 -0.135014,0.4458281 -0.401446,1.1774574 -0.660605,1.8140314 -0.125723,0.308815 -0.362761,0.927638 -0.526751,1.375154 -0.163989,0.447519 -0.332362,0.855677 -0.374164,0.907017 -0.113523,0.139429 -0.346759,0.977584 -0.288302,1.036042 0.08285,0.08286 4.326606,0.05754 4.378308,-0.02612 z"
       id="path18901" /><path
       style="font-size:22.5778px;font-family:Mortend;-inkscape-font-specification:Mortend;letter-spacing:-1.05833px;fill:#ffffff;stroke-width:0.0228553"
       d="M 42.911356,12.88694 V 6.6133286 l 3.347318,0.024519 c 3.268759,0.023931 3.359714,0.02922 3.875412,0.2261332 0.694556,0.2651906 1.311491,0.8156962 1.677917,1.497243 0.277023,0.5152616 0.293862,0.594777 0.289657,1.3677004 -0.0039,0.7077538 -0.03526,0.8807938 -0.228362,1.2580278 -0.232134,0.453484 -0.700447,0.923798 -1.173253,1.178257 -0.15038,0.08093 -0.273418,0.181186 -0.273418,0.222787 0,0.0416 0.192575,0.165831 0.427943,0.276072 1.486675,0.696321 2.06194,2.452607 1.416234,4.32377 -0.19002,0.550652 -0.908439,1.336681 -1.498862,1.639923 -0.78095,0.401093 -1.222983,0.447905 -4.642843,0.491651 l -3.217743,0.04116 z m 6.454764,4.865836 c 0.772611,-0.134545 1.293135,-0.498827 1.605796,-1.123804 0.633818,-1.26693 0.01557,-2.848312 -1.319932,-3.376167 -0.443655,-0.175348 -0.655876,-0.19133 -2.961398,-0.222999 l -2.483493,-0.03411 v 2.368991 c 0,1.302945 0.02592,2.394907 0.05759,2.426579 0.09748,0.09748 4.511918,0.06417 5.101442,-0.03849 z m 0.352015,-6.235002 C 51.053761,10.814124 51.122914,8.7473443 49.832679,8.0943943 49.352216,7.8512448 49.170954,7.8351327 46.6258,7.8093568 l -2.375517,-0.024062 -0.02321,2.0142546 -0.02321,2.0142546 2.528292,-0.02746 2.528293,-0.02746 z"
       id="path18899" /><path
       style="font-size:22.5778px;font-family:Mortend;-inkscape-font-specification:Mortend;letter-spacing:-1.05833px;fill:#ffffff;stroke-width:0.0228553"
       d="m 92.96998,19.313099 c -1.345583,-0.203577 -2.485548,-0.925134 -3.063927,-1.939346 -0.551574,-0.967221 -0.600792,-1.48102 -0.610427,-6.372406 -0.0059,-3.0104418 0.01952,-4.260402 0.08808,-4.3289801 0.106681,-0.1066822 0.822297,-0.1291966 1.059585,-0.033341 0.141202,0.057047 0.15117,0.3521923 0.15117,4.4767441 0,4.284467 0.0056,4.434973 0.188739,5.065239 0.300459,1.034056 1.004473,1.626012 2.243897,1.886733 0.807195,0.169798 1.298203,0.159566 2.092588,-0.0436 1.218013,-0.311512 1.901898,-1.031349 2.124652,-2.23632 0.05214,-0.282066 0.08796,-2.228752 0.08796,-4.781181 V 6.7012445 l 0.221579,-0.084246 c 0.331176,-0.1259089 0.751372,-0.1018926 0.976539,0.055822 l 0.199968,0.140062 -0.0413,4.3302305 c -0.04411,4.625595 -0.09335,5.226441 -0.493368,6.020096 -0.683891,1.356891 -1.966986,2.094224 -3.800423,2.183929 -0.498858,0.02439 -1.140248,0.0091 -1.425309,-0.03404 z"
       id="path18897" /><g
       id="g502"
       transform="matrix(0.48273611,0,0,0.48273611,45.603224,-52.69652)"
       style="fill:#ffffff"><g
         aria-label="LAW GROUP"
         id="text367"
         style="font-weight:bold;font-size:18.9426px;font-family:'Microsoft JhengHei UI';-inkscape-font-specification:'Microsoft JhengHei UI weight=290';letter-spacing:5.76194px;fill:#ffffff;stroke:#ffffff;stroke-width:0.173212"><path
           d="m 34.241588,180.06889 q -0.189426,0 -0.303081,-0.11365 -0.113656,-0.11366 -0.113656,-0.30308 v -12.42635 q 0,-0.18943 0.113656,-0.30308 0.113655,-0.11366 0.303081,-0.11366 h 0.35991 q 0.189426,0 0.303081,0.11366 0.113656,0.11365 0.113656,0.30308 v 11.70653 h 6.535197 q 0.208369,0 0.322024,0.11365 0.113656,0.11366 0.113656,0.32203 v 0.28414 q 0,0.18942 -0.113656,0.30308 -0.113655,0.11365 -0.322024,0.11365 z"
           style="font-weight:300;font-family:Rubik;-inkscape-font-specification:'Rubik Light';fill:#ffffff"
           id="path419" /><path
           d="m 49.020217,180.06889 q -0.151541,0 -0.265196,-0.11365 -0.113656,-0.11366 -0.113656,-0.2652 0,-0.0947 0.03789,-0.20837 l 4.792478,-12.29374 q 0.07577,-0.18943 0.189426,-0.28414 0.132598,-0.0947 0.35991,-0.0947 h 0.644048 q 0.227311,0 0.340967,0.0947 0.132598,0.0947 0.208368,0.28414 l 4.792478,12.29374 q 0.03789,0.11366 0.03789,0.20837 0,0.15154 -0.113656,0.2652 -0.113656,0.11365 -0.265196,0.11365 h -0.378852 q -0.189426,0 -0.284139,-0.0947 -0.09471,-0.11366 -0.132599,-0.18943 l -1.174441,-3.03081 h -6.70568 l -1.174442,3.03081 q -0.01894,0.0758 -0.132598,0.18943 -0.09471,0.0947 -0.284139,0.0947 z m 2.424653,-4.45151 h 5.796436 L 54.343088,168.154 Z"
           style="font-weight:300;font-family:Rubik;-inkscape-font-specification:'Rubik Light';fill:#ffffff"
           id="path421" /><path
           d="m 69.841538,180.06889 q -0.227311,0 -0.359909,-0.0947 -0.113656,-0.11366 -0.170484,-0.35991 l -2.595136,-12.19903 q -0.01894,-0.0758 -0.03789,-0.1326 0,-0.0758 0,-0.0947 0,-0.15155 0.113655,-0.2652 0.113656,-0.11366 0.265197,-0.11366 h 0.397794 q 0.35991,0 0.416738,0.28414 l 2.216284,10.79728 2.348882,-7.70963 q 0.05683,-0.17049 0.189426,-0.30309 0.151541,-0.13259 0.397795,-0.13259 h 0.416737 q 0.265196,0 0.397795,0.13259 0.132598,0.1326 0.189426,0.30309 l 2.348882,7.70963 2.216284,-10.79728 q 0.05683,-0.28414 0.416738,-0.28414 h 0.397794 q 0.151541,0 0.265197,0.11366 0.113655,0.11365 0.113655,0.2652 0,0.0189 -0.01894,0.0947 0,0.0568 -0.01894,0.1326 l -2.595136,12.19903 q -0.05683,0.24625 -0.189426,0.35991 -0.113656,0.0947 -0.340967,0.0947 H 76.33885 q -0.227311,0 -0.378852,-0.11365 -0.132598,-0.11366 -0.208369,-0.34097 l -2.519366,-7.99378 -2.519365,7.99378 q -0.07577,0.22731 -0.227312,0.34097 -0.132598,0.11365 -0.359909,0.11365 z"
           style="font-weight:300;font-family:Rubik;-inkscape-font-specification:'Rubik Light';fill:#ffffff"
           id="path423" /><path
           d="m 103.05469,180.25832 q -1.62906,0 -2.74668,-0.62511 -1.098666,-0.64404 -1.685887,-1.7806 -0.568278,-1.13656 -0.625105,-2.61408 -0.01894,-0.85242 -0.01894,-1.79955 0,-0.94713 0.01894,-1.79954 0.05683,-1.49647 0.625105,-2.61408 0.587221,-1.13656 1.704837,-1.76166 1.11761,-0.64405 2.72773,-0.64405 1.30704,0 2.23523,0.39779 0.92819,0.37885 1.51541,0.96607 0.58722,0.56828 0.87136,1.1555 0.28414,0.58722 0.30308,0.98502 0.0189,0.17048 -0.0947,0.28414 -0.11365,0.0947 -0.30308,0.0947 h -0.41673 q -0.17049,0 -0.24626,-0.0758 -0.0758,-0.0947 -0.15154,-0.30308 -0.18942,-0.58722 -0.64405,-1.11762 -0.43568,-0.54933 -1.19338,-0.8903 -0.73876,-0.35991 -1.87532,-0.35991 -1.68589,0 -2.74668,0.92819 -1.041838,0.90925 -1.117609,3.04976 -0.05683,1.70483 0,3.40967 0.07577,2.12157 1.117609,3.04976 1.06079,0.92818 2.74668,0.92818 1.11762,0 2.00792,-0.41673 0.8903,-0.43568 1.40175,-1.30704 0.51145,-0.89031 0.51145,-2.25417 v -0.96608 h -3.29601 q -0.18943,0 -0.30308,-0.11365 -0.11366,-0.1326 -0.11366,-0.32203 v -0.26519 q 0,-0.20837 0.11366,-0.32203 0.11365,-0.11365 0.30308,-0.11365 h 4.05371 q 0.20837,0 0.32203,0.11365 0.11365,0.11366 0.11365,0.32203 v 1.66695 q 0,1.51541 -0.60616,2.6709 -0.58722,1.1555 -1.74272,1.79955 -1.13655,0.64405 -2.76562,0.64405 z"
           style="font-weight:300;font-family:Rubik;-inkscape-font-specification:'Rubik Light';fill:#ffffff"
           id="path425" /><path
           d="m 117.26503,180.06889 q -0.18943,0 -0.30309,-0.11365 -0.11365,-0.11366 -0.11365,-0.30308 v -12.40741 q 0,-0.20837 0.11365,-0.32202 0.11366,-0.11366 0.30309,-0.11366 h 4.41362 q 1.98897,0 3.16342,0.94713 1.19338,0.94713 1.19338,2.87928 0,1.51541 -0.7577,2.42465 -0.75771,0.90925 -2.10263,1.23127 l 3.04976,5.19027 q 0.0568,0.11366 0.0568,0.20837 0,0.15154 -0.11365,0.2652 -0.11366,0.11365 -0.2652,0.11365 h -0.22731 q -0.30308,0 -0.45462,-0.15154 -0.15154,-0.17048 -0.2652,-0.35991 l -3.01187,-5.09556 h -3.90218 v 5.19028 q 0,0.18942 -0.11365,0.30308 -0.11366,0.11365 -0.32203,0.11365 z m 0.77664,-6.74356 h 3.54227 q 1.648,0 2.44359,-0.66299 0.81454,-0.68194 0.81454,-2.02686 0,-1.34493 -0.81454,-2.00792 -0.79559,-0.68193 -2.44359,-0.68193 h -3.54227 z"
           style="font-weight:300;font-family:Rubik;-inkscape-font-specification:'Rubik Light';fill:#ffffff"
           id="path427" /><path
           d="m 139.22289,180.25832 q -1.57224,0 -2.67091,-0.54934 -1.09867,-0.56827 -1.68589,-1.72377 -0.58722,-1.17444 -0.64405,-2.95505 -0.0189,-0.85242 -0.0189,-1.59118 0,-0.73876 0.0189,-1.59118 0.0568,-1.76166 0.68193,-2.91716 0.62511,-1.17444 1.72378,-1.74271 1.11761,-0.56828 2.59514,-0.56828 1.47752,0 2.57619,0.56828 1.11761,0.56827 1.74272,1.74271 0.64405,1.1555 0.68193,2.91716 0.0379,0.85242 0.0379,1.59118 0,0.73876 -0.0379,1.59118 -0.0379,1.78061 -0.64405,2.95505 -0.58722,1.1555 -1.68589,1.72377 -1.09867,0.54934 -2.6709,0.54934 z m 0,-1.13656 q 1.62906,0 2.6709,-0.98501 1.06079,-0.98502 1.13656,-3.2013 0.0379,-0.85242 0.0379,-1.49647 0,-0.64405 -0.0379,-1.49646 -0.0379,-1.47752 -0.54934,-2.40571 -0.49251,-0.92819 -1.34492,-1.34493 -0.83348,-0.43568 -1.9132,-0.43568 -1.06079,0 -1.91321,0.43568 -0.83347,0.41674 -1.34492,1.34493 -0.49251,0.92819 -0.54934,2.40571 -0.0189,0.85241 -0.0189,1.49646 0,0.64405 0.0189,1.49647 0.0758,2.21628 1.13656,3.2013 1.06078,0.98501 2.67091,0.98501 z"
           style="font-weight:300;font-family:Rubik;-inkscape-font-specification:'Rubik Light';fill:#ffffff"
           id="path429" /><path
           d="m 157.80898,180.25832 q -1.53435,0 -2.63302,-0.56828 -1.07973,-0.56828 -1.66695,-1.74272 -0.58722,-1.17444 -0.58722,-3.01187 v -7.6907 q 0,-0.20837 0.11366,-0.32202 0.11365,-0.11366 0.30308,-0.11366 h 0.34096 q 0.20837,0 0.32203,0.11366 0.11365,0.11365 0.11365,0.32202 v 7.74753 q 0,2.12157 0.98502,3.12553 1.00396,1.00395 2.70879,1.00395 1.68589,0 2.67091,-1.00395 1.00395,-1.00396 1.00395,-3.12553 v -7.74753 q 0,-0.20837 0.11366,-0.32202 0.1326,-0.11366 0.32202,-0.11366 h 0.34097 q 0.18943,0 0.30308,0.11366 0.11366,0.11365 0.11366,0.32202 v 7.6907 q 0,1.83743 -0.58722,3.01187 -0.56828,1.17444 -1.64801,1.74272 -1.07973,0.56828 -2.63302,0.56828 z"
           style="font-weight:300;font-family:Rubik;-inkscape-font-specification:'Rubik Light';fill:#ffffff"
           id="path431" /><path
           d="m 172.30346,180.06889 q -0.18942,0 -0.30308,-0.11365 -0.11365,-0.11366 -0.11365,-0.30308 v -12.40741 q 0,-0.20837 0.11365,-0.32202 0.11366,-0.11366 0.30308,-0.11366 h 4.60305 q 1.32599,0 2.29206,0.45463 0.98501,0.43568 1.51541,1.30704 0.54933,0.87135 0.54933,2.15945 0,1.2881 -0.54933,2.15946 -0.5304,0.87136 -1.51541,1.32598 -0.96607,0.43568 -2.29206,0.43568 h -3.8264 v 5.00085 q 0,0.18942 -0.11366,0.30308 -0.11365,0.11365 -0.32202,0.11365 z m 0.77665,-6.55414 h 3.73169 q 1.64801,0 2.4436,-0.71982 0.81453,-0.71981 0.81453,-2.06474 0,-1.34492 -0.81453,-2.06474 -0.79559,-0.71982 -2.4436,-0.71982 h -3.73169 z"
           style="font-weight:300;font-family:Rubik;-inkscape-font-specification:'Rubik Light';fill:#ffffff"
           id="path433" /></g></g><g
       id="g19830"
       transform="matrix(0.31901957,0,0,0.2922963,-55.274028,-66.725395)"
       style="font-size:22.5778px;font-family:Mortend;-inkscape-font-specification:Mortend;letter-spacing:-1.05833px;fill:#ffffff;stroke:none;stroke-width:0.264811;stroke-dasharray:none;stroke-opacity:1"><path
         id="path19017-0-3-8-1"
         style="opacity:1;fill:#ffffff;stroke:none;stroke-width:2.08767"
         inkscape:transform-center-x="-0.0038619462"
         inkscape:transform-center-y="0.21915496"
         transform="matrix(0.11892476,-0.02670699,0.02446983,0.1297975,109.54367,249.4383)"
         d="m 694.83145,344.46757 -14.75193,-2.70475 -7.86095,12.77265 -1.98622,-14.86573 -14.57668,-3.52924 13.52437,-6.48278 -1.14793,-14.95384 10.34475,10.85916 13.86721,-5.71274 -7.13097,13.1941 z m 581.68175,133.12531 6.8557,-13.33922 -9.9533,-11.21907 14.8049,2.39809 7.5943,-12.93301 2.2942,14.82132 14.6468,3.22603 -13.387,6.762 1.458,14.92679 -10.5679,-10.64217 z m -53.5768,-112.22565 6.1868,-13.66232 -10.4966,-10.71248 14.9055,1.6621 6.9445,-13.29316 3.0253,14.68954 14.7886,2.49685 -13.0358,7.41655 2.1953,14.83629 -11.0818,-10.10586 z m -87.888,-93.14287 3.1967,-14.65321 -12.5026,-8.28378 14.9239,-1.48786 4.0148,-14.45048 6.0268,13.73365 14.9838,-0.6471 -11.1991,9.97573 5.2457,14.05054 -12.9482,-7.56831 z m -116.1942,-45.972 -2.5509,-14.77931 -14.7005,-2.97159 13.2677,-6.99309 -1.7166,-14.89928 10.7508,10.45733 13.6396,-6.23666 -6.6234,13.45609 10.1463,11.04479 -14.8442,-2.14102 z m -125.02313,0.96091 -6.44125,-13.5442 -14.95729,1.10203 10.89085,-10.31137 -5.67016,-13.88468 13.17216,7.17142 11.45294,-9.68324 -2.75001,14.74356 12.74846,7.9001 -14.87175,1.9406 z m -104.54415,40.74885 -13.65171,-6.21016 -10.73043,10.47822 1.6876,-14.90259 -13.28126,-6.9673 14.6947,-3.00015 2.52217,-14.78424 7.39422,13.0484 14.84004,-2.16986 -10.12483,11.06449 z m 76.82272,650.06201 c -3.11474,-3.43526 -2.91522,-4.55408 2.92593,-16.41068 3.44759,-6.9982 7.34577,-17.96067 8.66271,-24.36109 2.59148,-12.59472 8.98921,-25.14156 12.45623,-24.42819 4.13586,0.85099 5.11918,16.56701 2.60186,41.58524 -1.8744,18.62834 -3.36098,25.85283 -5.70614,27.73053 -4.0036,3.20547 -16.53547,0.74242 -20.94023,-4.11601 z m 58.31375,7.99563 c -3.77616,-1.78837 -5.34039,-4.81105 -5.55499,-10.73378 -0.16427,-4.53436 -0.81558,-13.83734 -1.44739,-20.67324 -1.44199,-15.60376 1.66148,-21.47953 4.30843,-8.1569 1.07524,5.41223 3.7744,16.39732 5.99799,24.41125 2.22362,8.01385 3.57257,15.26182 2.9976,16.10648 -0.57492,0.84458 -3.41069,0.41538 -6.30157,-0.95415 z M 824.927,904.3704 c 0.11935,-0.58008 5.43646,-6.3662 11.81561,-12.85698 6.37916,-6.49087 12.77126,-14.2367 14.20471,-17.21315 1.43315,-2.97642 3.60557,-5.20599 4.82684,-4.9547 2.96694,0.61047 3.10418,0.26594 -7.53842,18.92065 -5.12719,8.98698 -10.7321,16.87561 -12.45538,17.53028 -3.41552,1.29754 -11.20321,0.2742 -10.85336,-1.4261 z m -33.11249,-11.08527 c 0.75818,-3.68481 36.60673,-27.20805 40.30446,-26.44721 1.52501,0.31379 2.65313,1.15233 2.50696,1.86272 -0.39016,1.89622 -27.37491,26.93417 -30.52204,28.32001 -4.42783,1.94975 -12.92757,-0.63388 -12.28938,-3.73552 z m 160.74685,33.13672 c -4.25017,-7.74299 -14.39234,-33.43768 -13.98327,-35.42579 1.09458,-5.31974 6.82731,0.35771 18.17372,17.99868 6.73298,10.46801 11.40155,19.92302 10.37464,21.01108 -2.63392,2.79071 -12.38279,0.39195 -14.56514,-3.58372 z M 663.37086,797.0193 c -1.48209,-1.4313 -1.71401,-5.28005 -0.53443,-8.87022 1.75876,-5.35207 5.46261,-7.49617 23.73229,-13.73723 11.9067,-4.06756 26.84967,-9.60619 33.20669,-12.30816 21.68025,-9.21496 48.1906,-17.45437 50.88676,-15.81562 3.36269,2.04387 -8.4875,9.63532 -52.59564,33.69349 -41.61433,22.69797 -47.07326,24.39846 -54.69567,17.03774 z m 446.98674,90.51875 c -6.9268,-5.18554 -61.1787,-77.07797 -61.6776,-81.73254 -0.1775,-1.65872 1.0759,-2.72808 2.7858,-2.37626 2.7949,0.57507 64.1367,58.31266 77.1779,72.64328 6.621,7.27569 5.5209,13.57073 -2.6995,15.44883 -7.7332,1.76672 -7.9949,1.69986 -15.5863,-3.98289 z M 880.61016,814.95678 c -32.20841,-40.1144 -60.97693,-81.40039 -62.642,-89.89825 -0.9665,-4.93219 -2.38622,-26.61684 -3.15491,-48.18805 -0.76878,-21.57122 -2.27682,-50.42495 -3.35132,-64.11955 -1.07445,-13.6945 -0.95005,-25.55582 0.27644,-26.35846 3.51384,-2.29922 49.44864,6.7243 54.01628,10.61136 4.45839,3.79394 18.22972,33.98977 35.97155,78.87354 6.42158,16.24551 12.62434,31.02811 13.784,32.85029 4.69134,7.37163 12.37694,2.03656 48.58373,-33.72393 20.32487,-20.07453 40.65837,-39.18779 45.18547,-42.47407 l 8.2311,-5.97489 26.7207,5.49801 c 22.9829,4.72895 26.6163,6.00449 25.9754,9.1194 -1.5231,7.40213 -54.7249,116.27995 -60.7783,124.38298 -3.6268,4.85497 -14.59144,13.22552 -25.91903,19.7871 -47.37082,27.44007 -83.05297,46.00462 -86.90156,45.21274 -2.28865,-0.47091 -9.48754,-7.48996 -15.99759,-15.59805 z m 63.57895,-29.47144 c 22.33574,-13.89724 42.54228,-27.63936 44.90343,-30.538 5.85879,-7.19278 55.77166,-93.81821 56.72396,-98.44647 1.0401,-5.0545 -20.2959,8.84914 -33.4799,21.81739 -5.5765,5.48527 -21.6403,21.41019 -35.69727,35.38867 -37.44083,37.23204 -65.01746,62.05055 -68.79084,61.91071 -1.91304,-0.0708 -8.45875,-12.39054 -15.48305,-29.14085 -6.69298,-15.96005 -13.9452,-33.09999 -16.11617,-38.0889 -2.17099,-4.98882 -10.38427,-25.17277 -18.25176,-44.85332 -19.57272,-48.96147 -27.20919,-62.87269 -29.20052,-53.19472 -1.91617,9.31272 9.31168,103.37182 13.80637,115.66043 4.36092,11.92281 52.89879,83.09105 57.28497,83.99354 2.0297,0.41763 21.96511,-10.61123 44.30078,-24.50848 z M 623.21744,735.01743 c -0.40079,-1.18661 -4.5e-4,-5.04644 0.88893,-8.57771 1.43874,-5.71337 3.22807,-6.673 16.2463,-8.71433 8.04611,-1.26161 25.80622,-5.01016 39.46693,-8.33003 35.76538,-8.69195 70.7497,-15.55394 71.72777,-14.06912 1.37184,2.08273 -19.309,10.05352 -68.67492,26.46887 -44.7339,14.87504 -58.09739,17.83701 -59.65501,13.22232 z m 513.90046,79.35983 c -41.3431,-38.73609 -49.7704,-47.38173 -47.5874,-48.81969 0.7996,-0.52663 5.0983,1.79368 9.5529,5.15547 4.4544,3.36231 12.2646,9.0898 17.3559,12.7278 5.0914,3.63801 14.3421,10.28349 20.5571,14.76759 6.215,4.48428 19.7431,14.24436 30.0625,21.68924 10.3193,7.44476 19.9231,13.77486 21.3416,14.06674 4.5713,0.94059 5.8772,12.36081 1.7877,15.63503 -7.0054,5.60905 -15.5289,-0.0479 -53.0703,-35.22218 z m 87.6371,-24.11414 c -6.856,-4.52201 -17.6662,-11.32899 -24.0224,-15.12666 -6.3563,-3.79777 -25.2675,-15.09641 -42.0249,-25.1084 -32.8297,-19.61452 -52.1173,-33.39693 -51.4275,-36.74909 0.6301,-3.06246 10.2959,-0.55925 25.3945,6.57649 20.8804,9.86841 96.6447,41.94038 109.3845,46.30386 6.3426,2.17188 13.0548,5.62935 14.9161,7.68213 3.2054,3.53524 3.0095,4.22006 -3.7078,12.96191 -9.9062,12.89181 -13.5429,13.33301 -28.5125,3.45976 z M 592.71864,659.49642 c -3.8473,-5.41364 -5.20224,-21.17526 -2.00156,-23.2836 0.89484,-0.58907 9.81717,-0.75986 19.82759,-0.37886 25.20404,0.95935 60.10022,1.20865 93.71129,0.66968 35.71314,-0.57286 48.31254,0.28369 47.70369,3.24271 -0.25813,1.25453 -1.94257,2.99021 -3.7431,3.85729 -4.57162,2.20143 -35.73328,7.41133 -80.02862,13.37994 -20.68885,2.78778 -43.66024,6.06156 -51.04758,7.27519 -16.62485,2.73093 -19.49413,2.17141 -24.4218,-4.76192 z m 346.60059,-27.07798 c 5.6398,-31.55672 6.50827,-41.13451 4.96748,-54.7812 -2.49584,-22.1053 -12.80812,-38.4644 -27.69026,-43.92682 -15.37072,-5.64169 -17.85035,-2.30288 -8.49792,11.44238 9.65329,14.18743 11.68137,24.37067 8.21175,41.23318 -2.91485,14.16634 -4.38332,16.45888 -8.75184,13.66298 -2.0155,-1.29046 -1.75858,-4.92573 0.95594,-13.52501 2.98943,-9.46992 3.11646,-13.99803 0.65383,-23.24645 -1.68223,-6.31719 -5.01972,-14.26985 -7.41665,-17.67264 -5.99977,-8.5174 -19.63794,-11.23395 -28.63323,-5.70337 l -6.67601,4.10478 -2.55668,-6.4552 c -1.6475,-4.15947 -1.5884,-9.89095 0.166,-16.11583 2.5693,-9.11537 3.41324,-9.84227 14.95718,-12.87827 22.21335,-5.84217 48.79326,1.07169 72.39047,18.82979 21.82661,16.42573 42.92767,63.26634 38.38302,85.20362 -1.56265,7.5537 -5.95285,13.09819 -26.49571,33.48102 -13.54124,13.43572 -26.01132,24.46487 -27.71126,24.50918 -2.41469,0.0632 -1.5957,-8.28534 3.74392,-38.16231 z M 581.14014,567.00742 c -2.48934,-4.66925 -2.95819,-25.69442 -0.62804,-28.16327 1.03461,-1.09673 38.94738,5.80763 93.29055,16.98922 76.03079,15.64401 91.43878,19.3628 90.90856,21.93972 -0.45238,2.19858 -5.51646,2.57635 -17.37347,1.29609 -21.34364,-2.30456 -83.79582,-5.56118 -117.30915,-6.11721 -38.52459,-0.63925 -46.58234,-1.61898 -48.88845,-5.94455 z m 684.37466,139.8368 c -18.3421,-7.79483 -106.186,-40.58824 -125.3005,-46.77649 -7.5223,-2.43512 -15.2395,-6.21229 -17.1495,-8.39343 -2.9683,-3.38961 10.1236,-1.179 90.133,15.21951 l 93.6067,19.18015 -4.0503,11.55427 c -7.3431,20.94787 -8.7826,21.30394 -37.2384,9.21102 z M 792.1534,534.15869 c -0.91137,-1.38352 -84.29204,-31.06019 -140.32678,-49.94479 -55.7589,-18.79154 -60.21545,-20.52006 -61.60775,-23.89484 -1.95594,-4.74098 7.66802,-36.2372 11.97409,-39.18888 2.96871,-2.03487 8.07228,0.0705 30.80968,12.70977 53.19666,29.57069 70.00431,38.73931 101.55447,55.39837 17.55868,9.27133 39.4087,21.13702 48.55563,26.36806 9.14692,5.23113 17.90406,9.77305 19.46021,10.09324 4.844,0.9967 7.02426,7.30007 3.3599,9.71377 -3.22859,2.12667 -12.08319,1.32043 -13.77945,-1.2547 z m 306.8845,58.6325 c 0.7776,-3.77909 27.9025,-7.07131 99.2196,-12.04232 14.0756,-0.98111 69.2514,-6.2883 100.4481,-9.66164 16.2303,-1.75506 30.8649,-2.32355 32.5213,-1.2634 4.1355,2.64682 4.4273,6.07386 2.197,25.80543 l -1.9329,17.10006 -8.145,0.85805 c -4.4798,0.47186 -22.7281,-0.51297 -40.552,-2.18863 -29.494,-2.77264 -72.8554,-6.04998 -145.0663,-10.96434 -33.2656,-2.26395 -39.5416,-3.50375 -38.6898,-7.6433 z M 988.72005,547.2004 c -12.33988,-29.09635 -35.66439,-49.98733 -56.09146,-50.23925 -4.6831,-0.0578 -10.79052,-0.65549 -13.57208,-1.32833 -3.05789,-0.73977 -5.33147,0.10925 -5.75077,2.14707 -0.3814,1.85361 -1.80591,3.14131 -3.16554,2.86156 -4.5506,-0.93633 8.89713,-13.29919 14.91825,-13.71485 3.24577,-0.22405 12.80136,0.90648 21.23463,2.51239 13.0297,2.48121 16.63153,4.16139 23.97567,11.18679 14.18018,13.56428 28.86882,45.7552 25.0421,54.88125 -1.0761,2.5652 -3.0184,0.11735 -6.5908,-8.30663 z" /></g></g></svg>
