<?xml version="1.0" encoding="UTF-8" standalone="no"?>
<!-- Created with Inkscape (http://www.inkscape.org/) -->

<svg
   width="700"
   height="250.00002"
   viewBox="0 0 185.20833 66.145837"
   version="1.1"
   id="svg459"
   sodipodi:docname="logo_alternate.svg"
   inkscape:version="1.2.2 (732a01da63, 2022-12-09)"
   inkscape:export-filename="logo_alternate.svg"
   inkscape:export-xdpi="96"
   inkscape:export-ydpi="96"
   xmlns:inkscape="http://www.inkscape.org/namespaces/inkscape"
   xmlns:sodipodi="http://sodipodi.sourceforge.net/DTD/sodipodi-0.dtd"
   xmlns="http://www.w3.org/2000/svg"
   xmlns:svg="http://www.w3.org/2000/svg">
  <sodipodi:namedview
     id="namedview461"
     pagecolor="#ffffff"
     bordercolor="#000000"
     borderopacity="0.25"
     inkscape:showpageshadow="2"
     inkscape:pageopacity="0.0"
     inkscape:pagecheckerboard="0"
     inkscape:deskcolor="#d1d1d1"
     inkscape:document-units="mm"
     showgrid="false"
     inkscape:zoom="1.2404673"
     inkscape:cx="383.32328"
     inkscape:cy="113.66684"
     inkscape:window-width="1920"
     inkscape:window-height="1017"
     inkscape:window-x="-8"
     inkscape:window-y="-8"
     inkscape:window-maximized="1"
     inkscape:current-layer="layer1" />
  <defs
     id="defs456" />
  <g
     inkscape:label="Layer 1"
     inkscape:groupmode="layer"
     id="layer1">
    <path
       style="fill:#ffffff;stroke:#ffffff;stroke-width:0.280057;stroke-dasharray:none;stroke-opacity:1"
       d="M 11.967073,33.072917 H 59.970364"
       id="path4816" />
    <path
       style="fill:#ffffff;stroke:#ffffff;stroke-width:0.280057;stroke-dasharray:none;stroke-opacity:1"
       d="m 125.23796,33.07292 h 48.0033"
       id="path4816-6" />
    <g
       id="g19830"
       transform="matrix(0.55330032,0,0,0.50695209,-38.457789,-117.07065)"
       style="font-size:22.5778px;font-family:Mortend;-inkscape-font-specification:Mortend;letter-spacing:-1.05833px;fill:#ffffff;stroke:none;stroke-width:0.264811;stroke-dasharray:none;stroke-opacity:1">
      <path
         id="path19017-0-3-8-1"
         style="opacity:1;fill:#ffffff;stroke:none;stroke-width:2.08767"
         inkscape:transform-center-x="-0.0038619462"
         inkscape:transform-center-y="0.21915496"
         transform="matrix(0.11892476,-0.02670699,0.02446983,0.1297975,109.54367,249.4383)"
         d="m 694.83145,344.46757 -14.75193,-2.70475 -7.86095,12.77265 -1.98622,-14.86573 -14.57668,-3.52924 13.52437,-6.48278 -1.14793,-14.95384 10.34475,10.85916 13.86721,-5.71274 -7.13097,13.1941 z m 581.68175,133.12531 6.8557,-13.33922 -9.9533,-11.21907 14.8049,2.39809 7.5943,-12.93301 2.2942,14.82132 14.6468,3.22603 -13.387,6.762 1.458,14.92679 -10.5679,-10.64217 z m -53.5768,-112.22565 6.1868,-13.66232 -10.4966,-10.71248 14.9055,1.6621 6.9445,-13.29316 3.0253,14.68954 14.7886,2.49685 -13.0358,7.41655 2.1953,14.83629 -11.0818,-10.10586 z m -87.888,-93.14287 3.1967,-14.65321 -12.5026,-8.28378 14.9239,-1.48786 4.0148,-14.45048 6.0268,13.73365 14.9838,-0.6471 -11.1991,9.97573 5.2457,14.05054 -12.9482,-7.56831 z m -116.1942,-45.972 -2.5509,-14.77931 -14.7005,-2.97159 13.2677,-6.99309 -1.7166,-14.89928 10.7508,10.45733 13.6396,-6.23666 -6.6234,13.45609 10.1463,11.04479 -14.8442,-2.14102 z m -125.02313,0.96091 -6.44125,-13.5442 -14.95729,1.10203 10.89085,-10.31137 -5.67016,-13.88468 13.17216,7.17142 11.45294,-9.68324 -2.75001,14.74356 12.74846,7.9001 -14.87175,1.9406 z m -104.54415,40.74885 -13.65171,-6.21016 -10.73043,10.47822 1.6876,-14.90259 -13.28126,-6.9673 14.6947,-3.00015 2.52217,-14.78424 7.39422,13.0484 14.84004,-2.16986 -10.12483,11.06449 z m 76.82272,650.06201 c -3.11474,-3.43526 -2.91522,-4.55408 2.92593,-16.41068 3.44759,-6.9982 7.34577,-17.96067 8.66271,-24.36109 2.59148,-12.59472 8.98921,-25.14156 12.45623,-24.42819 4.13586,0.85099 5.11918,16.56701 2.60186,41.58524 -1.8744,18.62834 -3.36098,25.85283 -5.70614,27.73053 -4.0036,3.20547 -16.53547,0.74242 -20.94023,-4.11601 z m 58.31375,7.99563 c -3.77616,-1.78837 -5.34039,-4.81105 -5.55499,-10.73378 -0.16427,-4.53436 -0.81558,-13.83734 -1.44739,-20.67324 -1.44199,-15.60376 1.66148,-21.47953 4.30843,-8.1569 1.07524,5.41223 3.7744,16.39732 5.99799,24.41125 2.22362,8.01385 3.57257,15.26182 2.9976,16.10648 -0.57492,0.84458 -3.41069,0.41538 -6.30157,-0.95415 z M 824.927,904.3704 c 0.11935,-0.58008 5.43646,-6.3662 11.81561,-12.85698 6.37916,-6.49087 12.77126,-14.2367 14.20471,-17.21315 1.43315,-2.97642 3.60557,-5.20599 4.82684,-4.9547 2.96694,0.61047 3.10418,0.26594 -7.53842,18.92065 -5.12719,8.98698 -10.7321,16.87561 -12.45538,17.53028 -3.41552,1.29754 -11.20321,0.2742 -10.85336,-1.4261 z m -33.11249,-11.08527 c 0.75818,-3.68481 36.60673,-27.20805 40.30446,-26.44721 1.52501,0.31379 2.65313,1.15233 2.50696,1.86272 -0.39016,1.89622 -27.37491,26.93417 -30.52204,28.32001 -4.42783,1.94975 -12.92757,-0.63388 -12.28938,-3.73552 z m 160.74685,33.13672 c -4.25017,-7.74299 -14.39234,-33.43768 -13.98327,-35.42579 1.09458,-5.31974 6.82731,0.35771 18.17372,17.99868 6.73298,10.46801 11.40155,19.92302 10.37464,21.01108 -2.63392,2.79071 -12.38279,0.39195 -14.56514,-3.58372 z M 663.37086,797.0193 c -1.48209,-1.4313 -1.71401,-5.28005 -0.53443,-8.87022 1.75876,-5.35207 5.46261,-7.49617 23.73229,-13.73723 11.9067,-4.06756 26.84967,-9.60619 33.20669,-12.30816 21.68025,-9.21496 48.1906,-17.45437 50.88676,-15.81562 3.36269,2.04387 -8.4875,9.63532 -52.59564,33.69349 -41.61433,22.69797 -47.07326,24.39846 -54.69567,17.03774 z m 446.98674,90.51875 c -6.9268,-5.18554 -61.1787,-77.07797 -61.6776,-81.73254 -0.1775,-1.65872 1.0759,-2.72808 2.7858,-2.37626 2.7949,0.57507 64.1367,58.31266 77.1779,72.64328 6.621,7.27569 5.5209,13.57073 -2.6995,15.44883 -7.7332,1.76672 -7.9949,1.69986 -15.5863,-3.98289 z M 880.61016,814.95678 c -32.20841,-40.1144 -60.97693,-81.40039 -62.642,-89.89825 -0.9665,-4.93219 -2.38622,-26.61684 -3.15491,-48.18805 -0.76878,-21.57122 -2.27682,-50.42495 -3.35132,-64.11955 -1.07445,-13.6945 -0.95005,-25.55582 0.27644,-26.35846 3.51384,-2.29922 49.44864,6.7243 54.01628,10.61136 4.45839,3.79394 18.22972,33.98977 35.97155,78.87354 6.42158,16.24551 12.62434,31.02811 13.784,32.85029 4.69134,7.37163 12.37694,2.03656 48.58373,-33.72393 20.32487,-20.07453 40.65837,-39.18779 45.18547,-42.47407 l 8.2311,-5.97489 26.7207,5.49801 c 22.9829,4.72895 26.6163,6.00449 25.9754,9.1194 -1.5231,7.40213 -54.7249,116.27995 -60.7783,124.38298 -3.6268,4.85497 -14.59144,13.22552 -25.91903,19.7871 -47.37082,27.44007 -83.05297,46.00462 -86.90156,45.21274 -2.28865,-0.47091 -9.48754,-7.48996 -15.99759,-15.59805 z m 63.57895,-29.47144 c 22.33574,-13.89724 42.54228,-27.63936 44.90343,-30.538 5.85879,-7.19278 55.77166,-93.81821 56.72396,-98.44647 1.0401,-5.0545 -20.2959,8.84914 -33.4799,21.81739 -5.5765,5.48527 -21.6403,21.41019 -35.69727,35.38867 -37.44083,37.23204 -65.01746,62.05055 -68.79084,61.91071 -1.91304,-0.0708 -8.45875,-12.39054 -15.48305,-29.14085 -6.69298,-15.96005 -13.9452,-33.09999 -16.11617,-38.0889 -2.17099,-4.98882 -10.38427,-25.17277 -18.25176,-44.85332 -19.57272,-48.96147 -27.20919,-62.87269 -29.20052,-53.19472 -1.91617,9.31272 9.31168,103.37182 13.80637,115.66043 4.36092,11.92281 52.89879,83.09105 57.28497,83.99354 2.0297,0.41763 21.96511,-10.61123 44.30078,-24.50848 z M 623.21744,735.01743 c -0.40079,-1.18661 -4.5e-4,-5.04644 0.88893,-8.57771 1.43874,-5.71337 3.22807,-6.673 16.2463,-8.71433 8.04611,-1.26161 25.80622,-5.01016 39.46693,-8.33003 35.76538,-8.69195 70.7497,-15.55394 71.72777,-14.06912 1.37184,2.08273 -19.309,10.05352 -68.67492,26.46887 -44.7339,14.87504 -58.09739,17.83701 -59.65501,13.22232 z m 513.90046,79.35983 c -41.3431,-38.73609 -49.7704,-47.38173 -47.5874,-48.81969 0.7996,-0.52663 5.0983,1.79368 9.5529,5.15547 4.4544,3.36231 12.2646,9.0898 17.3559,12.7278 5.0914,3.63801 14.3421,10.28349 20.5571,14.76759 6.215,4.48428 19.7431,14.24436 30.0625,21.68924 10.3193,7.44476 19.9231,13.77486 21.3416,14.06674 4.5713,0.94059 5.8772,12.36081 1.7877,15.63503 -7.0054,5.60905 -15.5289,-0.0479 -53.0703,-35.22218 z m 87.6371,-24.11414 c -6.856,-4.52201 -17.6662,-11.32899 -24.0224,-15.12666 -6.3563,-3.79777 -25.2675,-15.09641 -42.0249,-25.1084 -32.8297,-19.61452 -52.1173,-33.39693 -51.4275,-36.74909 0.6301,-3.06246 10.2959,-0.55925 25.3945,6.57649 20.8804,9.86841 96.6447,41.94038 109.3845,46.30386 6.3426,2.17188 13.0548,5.62935 14.9161,7.68213 3.2054,3.53524 3.0095,4.22006 -3.7078,12.96191 -9.9062,12.89181 -13.5429,13.33301 -28.5125,3.45976 z M 592.71864,659.49642 c -3.8473,-5.41364 -5.20224,-21.17526 -2.00156,-23.2836 0.89484,-0.58907 9.81717,-0.75986 19.82759,-0.37886 25.20404,0.95935 60.10022,1.20865 93.71129,0.66968 35.71314,-0.57286 48.31254,0.28369 47.70369,3.24271 -0.25813,1.25453 -1.94257,2.99021 -3.7431,3.85729 -4.57162,2.20143 -35.73328,7.41133 -80.02862,13.37994 -20.68885,2.78778 -43.66024,6.06156 -51.04758,7.27519 -16.62485,2.73093 -19.49413,2.17141 -24.4218,-4.76192 z m 346.60059,-27.07798 c 5.6398,-31.55672 6.50827,-41.13451 4.96748,-54.7812 -2.49584,-22.1053 -12.80812,-38.4644 -27.69026,-43.92682 -15.37072,-5.64169 -17.85035,-2.30288 -8.49792,11.44238 9.65329,14.18743 11.68137,24.37067 8.21175,41.23318 -2.91485,14.16634 -4.38332,16.45888 -8.75184,13.66298 -2.0155,-1.29046 -1.75858,-4.92573 0.95594,-13.52501 2.98943,-9.46992 3.11646,-13.99803 0.65383,-23.24645 -1.68223,-6.31719 -5.01972,-14.26985 -7.41665,-17.67264 -5.99977,-8.5174 -19.63794,-11.23395 -28.63323,-5.70337 l -6.67601,4.10478 -2.55668,-6.4552 c -1.6475,-4.15947 -1.5884,-9.89095 0.166,-16.11583 2.5693,-9.11537 3.41324,-9.84227 14.95718,-12.87827 22.21335,-5.84217 48.79326,1.07169 72.39047,18.82979 21.82661,16.42573 42.92767,63.26634 38.38302,85.20362 -1.56265,7.5537 -5.95285,13.09819 -26.49571,33.48102 -13.54124,13.43572 -26.01132,24.46487 -27.71126,24.50918 -2.41469,0.0632 -1.5957,-8.28534 3.74392,-38.16231 z M 581.14014,567.00742 c -2.48934,-4.66925 -2.95819,-25.69442 -0.62804,-28.16327 1.03461,-1.09673 38.94738,5.80763 93.29055,16.98922 76.03079,15.64401 91.43878,19.3628 90.90856,21.93972 -0.45238,2.19858 -5.51646,2.57635 -17.37347,1.29609 -21.34364,-2.30456 -83.79582,-5.56118 -117.30915,-6.11721 -38.52459,-0.63925 -46.58234,-1.61898 -48.88845,-5.94455 z m 684.37466,139.8368 c -18.3421,-7.79483 -106.186,-40.58824 -125.3005,-46.77649 -7.5223,-2.43512 -15.2395,-6.21229 -17.1495,-8.39343 -2.9683,-3.38961 10.1236,-1.179 90.133,15.21951 l 93.6067,19.18015 -4.0503,11.55427 c -7.3431,20.94787 -8.7826,21.30394 -37.2384,9.21102 z M 792.1534,534.15869 c -0.91137,-1.38352 -84.29204,-31.06019 -140.32678,-49.94479 -55.7589,-18.79154 -60.21545,-20.52006 -61.60775,-23.89484 -1.95594,-4.74098 7.66802,-36.2372 11.97409,-39.18888 2.96871,-2.03487 8.07228,0.0705 30.80968,12.70977 53.19666,29.57069 70.00431,38.73931 101.55447,55.39837 17.55868,9.27133 39.4087,21.13702 48.55563,26.36806 9.14692,5.23113 17.90406,9.77305 19.46021,10.09324 4.844,0.9967 7.02426,7.30007 3.3599,9.71377 -3.22859,2.12667 -12.08319,1.32043 -13.77945,-1.2547 z m 306.8845,58.6325 c 0.7776,-3.77909 27.9025,-7.07131 99.2196,-12.04232 14.0756,-0.98111 69.2514,-6.2883 100.4481,-9.66164 16.2303,-1.75506 30.8649,-2.32355 32.5213,-1.2634 4.1355,2.64682 4.4273,6.07386 2.197,25.80543 l -1.9329,17.10006 -8.145,0.85805 c -4.4798,0.47186 -22.7281,-0.51297 -40.552,-2.18863 -29.494,-2.77264 -72.8554,-6.04998 -145.0663,-10.96434 -33.2656,-2.26395 -39.5416,-3.50375 -38.6898,-7.6433 z M 988.72005,547.2004 c -12.33988,-29.09635 -35.66439,-49.98733 -56.09146,-50.23925 -4.6831,-0.0578 -10.79052,-0.65549 -13.57208,-1.32833 -3.05789,-0.73977 -5.33147,0.10925 -5.75077,2.14707 -0.3814,1.85361 -1.80591,3.14131 -3.16554,2.86156 -4.5506,-0.93633 8.89713,-13.29919 14.91825,-13.71485 3.24577,-0.22405 12.80136,0.90648 21.23463,2.51239 13.0297,2.48121 16.63153,4.16139 23.97567,11.18679 14.18018,13.56428 28.86882,45.7552 25.0421,54.88125 -1.0761,2.5652 -3.0184,0.11735 -6.5908,-8.30663 z" />
    </g>
  </g>
</svg>
